<mxfile host="app.diagrams.net" modified="2023-03-04T13:07:47.166Z" agent="5.0 (Windows NT 10.0; Win64; x64) AppleWebKit/537.36 (KHTML, like Gecko) Chrome/110.0.0.0 Safari/537.36" etag="inylgaSQ5EMgccGFHb0E" version="21.0.2" type="github">
  <diagram id="C5RBs43oDa-KdzZeNtuy" name="Page-1">
    <mxGraphModel dx="1615" dy="882" grid="1" gridSize="10" guides="1" tooltips="1" connect="1" arrows="1" fold="1" page="1" pageScale="1" pageWidth="827" pageHeight="1169" math="0" shadow="0">
      <root>
        <mxCell id="WIyWlLk6GJQsqaUBKTNV-0" />
        <mxCell id="WIyWlLk6GJQsqaUBKTNV-1" parent="WIyWlLk6GJQsqaUBKTNV-0" />
        <mxCell id="5Dlf4MTRBafzbC5_fvvY-3" style="edgeStyle=orthogonalEdgeStyle;rounded=0;orthogonalLoop=1;jettySize=auto;html=1;" edge="1" parent="WIyWlLk6GJQsqaUBKTNV-1" source="5Dlf4MTRBafzbC5_fvvY-0" target="5Dlf4MTRBafzbC5_fvvY-1">
          <mxGeometry relative="1" as="geometry" />
        </mxCell>
        <mxCell id="5Dlf4MTRBafzbC5_fvvY-0" value="Seller installs/opens seller app" style="rounded=0;whiteSpace=wrap;html=1;" vertex="1" parent="WIyWlLk6GJQsqaUBKTNV-1">
          <mxGeometry x="30" y="157" width="160" height="60" as="geometry" />
        </mxCell>
        <mxCell id="5Dlf4MTRBafzbC5_fvvY-10" value="" style="edgeStyle=orthogonalEdgeStyle;rounded=0;orthogonalLoop=1;jettySize=auto;html=1;" edge="1" parent="WIyWlLk6GJQsqaUBKTNV-1" source="5Dlf4MTRBafzbC5_fvvY-1" target="5Dlf4MTRBafzbC5_fvvY-4">
          <mxGeometry relative="1" as="geometry" />
        </mxCell>
        <mxCell id="5Dlf4MTRBafzbC5_fvvY-1" value="seller sign up&amp;nbsp;" style="rounded=0;whiteSpace=wrap;html=1;" vertex="1" parent="WIyWlLk6GJQsqaUBKTNV-1">
          <mxGeometry x="282" y="157" width="126" height="60" as="geometry" />
        </mxCell>
        <mxCell id="5Dlf4MTRBafzbC5_fvvY-11" value="" style="edgeStyle=orthogonalEdgeStyle;rounded=0;orthogonalLoop=1;jettySize=auto;html=1;" edge="1" parent="WIyWlLk6GJQsqaUBKTNV-1" source="5Dlf4MTRBafzbC5_fvvY-4" target="5Dlf4MTRBafzbC5_fvvY-5">
          <mxGeometry relative="1" as="geometry" />
        </mxCell>
        <mxCell id="5Dlf4MTRBafzbC5_fvvY-4" value="seller creates a shop" style="rounded=0;whiteSpace=wrap;html=1;" vertex="1" parent="WIyWlLk6GJQsqaUBKTNV-1">
          <mxGeometry x="490" y="157" width="120" height="60" as="geometry" />
        </mxCell>
        <mxCell id="5Dlf4MTRBafzbC5_fvvY-18" value="" style="edgeStyle=orthogonalEdgeStyle;rounded=0;orthogonalLoop=1;jettySize=auto;html=1;" edge="1" parent="WIyWlLk6GJQsqaUBKTNV-1" source="5Dlf4MTRBafzbC5_fvvY-5" target="5Dlf4MTRBafzbC5_fvvY-17">
          <mxGeometry relative="1" as="geometry" />
        </mxCell>
        <mxCell id="5Dlf4MTRBafzbC5_fvvY-5" value="Adds inventory" style="rounded=0;whiteSpace=wrap;html=1;" vertex="1" parent="WIyWlLk6GJQsqaUBKTNV-1">
          <mxGeometry x="690" y="157" width="120" height="60" as="geometry" />
        </mxCell>
        <mxCell id="5Dlf4MTRBafzbC5_fvvY-13" value="" style="edgeStyle=orthogonalEdgeStyle;rounded=0;orthogonalLoop=1;jettySize=auto;html=1;" edge="1" parent="WIyWlLk6GJQsqaUBKTNV-1" source="5Dlf4MTRBafzbC5_fvvY-6" target="5Dlf4MTRBafzbC5_fvvY-7">
          <mxGeometry relative="1" as="geometry" />
        </mxCell>
        <mxCell id="5Dlf4MTRBafzbC5_fvvY-6" value="publishes the shop" style="rounded=0;whiteSpace=wrap;html=1;" vertex="1" parent="WIyWlLk6GJQsqaUBKTNV-1">
          <mxGeometry x="690" y="374" width="120" height="60" as="geometry" />
        </mxCell>
        <mxCell id="5Dlf4MTRBafzbC5_fvvY-14" value="" style="edgeStyle=orthogonalEdgeStyle;rounded=0;orthogonalLoop=1;jettySize=auto;html=1;" edge="1" parent="WIyWlLk6GJQsqaUBKTNV-1" source="5Dlf4MTRBafzbC5_fvvY-7" target="5Dlf4MTRBafzbC5_fvvY-8">
          <mxGeometry relative="1" as="geometry" />
        </mxCell>
        <mxCell id="5Dlf4MTRBafzbC5_fvvY-7" value="receives order" style="rounded=0;whiteSpace=wrap;html=1;" vertex="1" parent="WIyWlLk6GJQsqaUBKTNV-1">
          <mxGeometry x="490" y="374" width="120" height="60" as="geometry" />
        </mxCell>
        <mxCell id="5Dlf4MTRBafzbC5_fvvY-15" value="" style="edgeStyle=orthogonalEdgeStyle;rounded=0;orthogonalLoop=1;jettySize=auto;html=1;" edge="1" parent="WIyWlLk6GJQsqaUBKTNV-1" source="5Dlf4MTRBafzbC5_fvvY-8" target="5Dlf4MTRBafzbC5_fvvY-9">
          <mxGeometry relative="1" as="geometry" />
        </mxCell>
        <mxCell id="5Dlf4MTRBafzbC5_fvvY-8" value="prepares the order" style="rounded=0;whiteSpace=wrap;html=1;" vertex="1" parent="WIyWlLk6GJQsqaUBKTNV-1">
          <mxGeometry x="282" y="374" width="120" height="60" as="geometry" />
        </mxCell>
        <mxCell id="5Dlf4MTRBafzbC5_fvvY-9" value="dispatches the order" style="rounded=0;whiteSpace=wrap;html=1;" vertex="1" parent="WIyWlLk6GJQsqaUBKTNV-1">
          <mxGeometry x="50" y="374" width="120" height="60" as="geometry" />
        </mxCell>
        <mxCell id="5Dlf4MTRBafzbC5_fvvY-16" value="&lt;b&gt;&lt;font style=&quot;font-size: 18px;&quot;&gt;Seller&lt;/font&gt;&lt;/b&gt;" style="text;html=1;align=center;verticalAlign=middle;resizable=0;points=[];autosize=1;strokeColor=none;fillColor=none;" vertex="1" parent="WIyWlLk6GJQsqaUBKTNV-1">
          <mxGeometry x="30" y="120" width="70" height="40" as="geometry" />
        </mxCell>
        <mxCell id="5Dlf4MTRBafzbC5_fvvY-19" value="" style="edgeStyle=orthogonalEdgeStyle;rounded=0;orthogonalLoop=1;jettySize=auto;html=1;" edge="1" parent="WIyWlLk6GJQsqaUBKTNV-1" source="5Dlf4MTRBafzbC5_fvvY-17" target="5Dlf4MTRBafzbC5_fvvY-6">
          <mxGeometry relative="1" as="geometry" />
        </mxCell>
        <mxCell id="5Dlf4MTRBafzbC5_fvvY-17" value="accepts terms and conditions" style="rounded=0;whiteSpace=wrap;html=1;" vertex="1" parent="WIyWlLk6GJQsqaUBKTNV-1">
          <mxGeometry x="690" y="267" width="120" height="60" as="geometry" />
        </mxCell>
        <mxCell id="5Dlf4MTRBafzbC5_fvvY-22" value="" style="edgeStyle=orthogonalEdgeStyle;rounded=0;orthogonalLoop=1;jettySize=auto;html=1;" edge="1" parent="WIyWlLk6GJQsqaUBKTNV-1" source="5Dlf4MTRBafzbC5_fvvY-20" target="5Dlf4MTRBafzbC5_fvvY-21">
          <mxGeometry relative="1" as="geometry" />
        </mxCell>
        <mxCell id="5Dlf4MTRBafzbC5_fvvY-20" value="buyer open app/website" style="rounded=0;whiteSpace=wrap;html=1;" vertex="1" parent="WIyWlLk6GJQsqaUBKTNV-1">
          <mxGeometry x="50" y="594" width="120" height="60" as="geometry" />
        </mxCell>
        <mxCell id="5Dlf4MTRBafzbC5_fvvY-30" value="" style="edgeStyle=orthogonalEdgeStyle;rounded=0;orthogonalLoop=1;jettySize=auto;html=1;" edge="1" parent="WIyWlLk6GJQsqaUBKTNV-1" source="5Dlf4MTRBafzbC5_fvvY-21" target="5Dlf4MTRBafzbC5_fvvY-23">
          <mxGeometry relative="1" as="geometry" />
        </mxCell>
        <mxCell id="5Dlf4MTRBafzbC5_fvvY-21" value="searches for the product" style="rounded=0;whiteSpace=wrap;html=1;" vertex="1" parent="WIyWlLk6GJQsqaUBKTNV-1">
          <mxGeometry x="240" y="594" width="120" height="60" as="geometry" />
        </mxCell>
        <mxCell id="5Dlf4MTRBafzbC5_fvvY-31" value="" style="edgeStyle=orthogonalEdgeStyle;rounded=0;orthogonalLoop=1;jettySize=auto;html=1;" edge="1" parent="WIyWlLk6GJQsqaUBKTNV-1" source="5Dlf4MTRBafzbC5_fvvY-23" target="5Dlf4MTRBafzbC5_fvvY-24">
          <mxGeometry relative="1" as="geometry" />
        </mxCell>
        <mxCell id="5Dlf4MTRBafzbC5_fvvY-23" value="adds to cart" style="rounded=0;whiteSpace=wrap;html=1;" vertex="1" parent="WIyWlLk6GJQsqaUBKTNV-1">
          <mxGeometry x="430" y="594" width="120" height="60" as="geometry" />
        </mxCell>
        <mxCell id="5Dlf4MTRBafzbC5_fvvY-32" value="" style="edgeStyle=orthogonalEdgeStyle;rounded=0;orthogonalLoop=1;jettySize=auto;html=1;" edge="1" parent="WIyWlLk6GJQsqaUBKTNV-1" source="5Dlf4MTRBafzbC5_fvvY-24" target="5Dlf4MTRBafzbC5_fvvY-25">
          <mxGeometry relative="1" as="geometry" />
        </mxCell>
        <mxCell id="5Dlf4MTRBafzbC5_fvvY-24" value="Adds address" style="rounded=0;whiteSpace=wrap;html=1;" vertex="1" parent="WIyWlLk6GJQsqaUBKTNV-1">
          <mxGeometry x="620" y="594" width="120" height="60" as="geometry" />
        </mxCell>
        <mxCell id="5Dlf4MTRBafzbC5_fvvY-33" value="" style="edgeStyle=orthogonalEdgeStyle;rounded=0;orthogonalLoop=1;jettySize=auto;html=1;" edge="1" parent="WIyWlLk6GJQsqaUBKTNV-1" source="5Dlf4MTRBafzbC5_fvvY-25" target="5Dlf4MTRBafzbC5_fvvY-26">
          <mxGeometry relative="1" as="geometry" />
        </mxCell>
        <mxCell id="5Dlf4MTRBafzbC5_fvvY-25" value="Adds payment method" style="rounded=0;whiteSpace=wrap;html=1;" vertex="1" parent="WIyWlLk6GJQsqaUBKTNV-1">
          <mxGeometry x="620" y="719" width="120" height="60" as="geometry" />
        </mxCell>
        <mxCell id="5Dlf4MTRBafzbC5_fvvY-34" value="" style="edgeStyle=orthogonalEdgeStyle;rounded=0;orthogonalLoop=1;jettySize=auto;html=1;" edge="1" parent="WIyWlLk6GJQsqaUBKTNV-1" source="5Dlf4MTRBafzbC5_fvvY-26" target="5Dlf4MTRBafzbC5_fvvY-27">
          <mxGeometry relative="1" as="geometry" />
        </mxCell>
        <mxCell id="5Dlf4MTRBafzbC5_fvvY-26" value="Makes payment" style="rounded=0;whiteSpace=wrap;html=1;" vertex="1" parent="WIyWlLk6GJQsqaUBKTNV-1">
          <mxGeometry x="430" y="719" width="120" height="60" as="geometry" />
        </mxCell>
        <mxCell id="5Dlf4MTRBafzbC5_fvvY-35" value="" style="edgeStyle=orthogonalEdgeStyle;rounded=0;orthogonalLoop=1;jettySize=auto;html=1;" edge="1" parent="WIyWlLk6GJQsqaUBKTNV-1" source="5Dlf4MTRBafzbC5_fvvY-27" target="5Dlf4MTRBafzbC5_fvvY-28">
          <mxGeometry relative="1" as="geometry" />
        </mxCell>
        <mxCell id="5Dlf4MTRBafzbC5_fvvY-27" value="Orders the products" style="rounded=0;whiteSpace=wrap;html=1;" vertex="1" parent="WIyWlLk6GJQsqaUBKTNV-1">
          <mxGeometry x="240" y="719" width="120" height="60" as="geometry" />
        </mxCell>
        <mxCell id="5Dlf4MTRBafzbC5_fvvY-36" value="" style="edgeStyle=orthogonalEdgeStyle;rounded=0;orthogonalLoop=1;jettySize=auto;html=1;" edge="1" parent="WIyWlLk6GJQsqaUBKTNV-1" source="5Dlf4MTRBafzbC5_fvvY-28" target="5Dlf4MTRBafzbC5_fvvY-29">
          <mxGeometry relative="1" as="geometry" />
        </mxCell>
        <mxCell id="5Dlf4MTRBafzbC5_fvvY-28" value="Gets product status tracking" style="rounded=0;whiteSpace=wrap;html=1;" vertex="1" parent="WIyWlLk6GJQsqaUBKTNV-1">
          <mxGeometry x="50" y="719" width="120" height="60" as="geometry" />
        </mxCell>
        <mxCell id="5Dlf4MTRBafzbC5_fvvY-29" value="receives the order" style="rounded=0;whiteSpace=wrap;html=1;" vertex="1" parent="WIyWlLk6GJQsqaUBKTNV-1">
          <mxGeometry x="50" y="844" width="120" height="60" as="geometry" />
        </mxCell>
        <mxCell id="5Dlf4MTRBafzbC5_fvvY-37" value="&lt;span style=&quot;font-size: 18px;&quot;&gt;&lt;b&gt;Buyer&lt;/b&gt;&lt;/span&gt;" style="text;html=1;align=center;verticalAlign=middle;resizable=0;points=[];autosize=1;strokeColor=none;fillColor=none;" vertex="1" parent="WIyWlLk6GJQsqaUBKTNV-1">
          <mxGeometry x="50" y="554" width="70" height="40" as="geometry" />
        </mxCell>
        <mxCell id="5Dlf4MTRBafzbC5_fvvY-39" value="&lt;b&gt;&lt;font style=&quot;font-size: 24px;&quot;&gt;&lt;u&gt;BASIC FLOW&lt;/u&gt;&lt;/font&gt;&lt;/b&gt;" style="text;html=1;align=center;verticalAlign=middle;resizable=0;points=[];autosize=1;strokeColor=none;fillColor=none;" vertex="1" parent="WIyWlLk6GJQsqaUBKTNV-1">
          <mxGeometry x="324" y="30" width="180" height="40" as="geometry" />
        </mxCell>
        <mxCell id="5Dlf4MTRBafzbC5_fvvY-49" value="" style="edgeStyle=orthogonalEdgeStyle;rounded=0;orthogonalLoop=1;jettySize=auto;html=1;" edge="1" parent="WIyWlLk6GJQsqaUBKTNV-1" source="5Dlf4MTRBafzbC5_fvvY-40" target="5Dlf4MTRBafzbC5_fvvY-41">
          <mxGeometry relative="1" as="geometry" />
        </mxCell>
        <mxCell id="5Dlf4MTRBafzbC5_fvvY-40" value="support logs into account assigned to him/her" style="rounded=0;whiteSpace=wrap;html=1;" vertex="1" parent="WIyWlLk6GJQsqaUBKTNV-1">
          <mxGeometry x="40" y="1059" width="120" height="60" as="geometry" />
        </mxCell>
        <mxCell id="5Dlf4MTRBafzbC5_fvvY-50" value="" style="edgeStyle=orthogonalEdgeStyle;rounded=0;orthogonalLoop=1;jettySize=auto;html=1;" edge="1" parent="WIyWlLk6GJQsqaUBKTNV-1" source="5Dlf4MTRBafzbC5_fvvY-41" target="5Dlf4MTRBafzbC5_fvvY-42">
          <mxGeometry relative="1" as="geometry" />
        </mxCell>
        <mxCell id="5Dlf4MTRBafzbC5_fvvY-41" value="support gets ticket notification" style="rounded=0;whiteSpace=wrap;html=1;" vertex="1" parent="WIyWlLk6GJQsqaUBKTNV-1">
          <mxGeometry x="224" y="1059" width="120" height="60" as="geometry" />
        </mxCell>
        <mxCell id="5Dlf4MTRBafzbC5_fvvY-51" value="" style="edgeStyle=orthogonalEdgeStyle;rounded=0;orthogonalLoop=1;jettySize=auto;html=1;" edge="1" parent="WIyWlLk6GJQsqaUBKTNV-1" source="5Dlf4MTRBafzbC5_fvvY-42" target="5Dlf4MTRBafzbC5_fvvY-43">
          <mxGeometry relative="1" as="geometry" />
        </mxCell>
        <mxCell id="5Dlf4MTRBafzbC5_fvvY-42" value="support opens ticket" style="rounded=0;whiteSpace=wrap;html=1;" vertex="1" parent="WIyWlLk6GJQsqaUBKTNV-1">
          <mxGeometry x="408" y="1059" width="120" height="60" as="geometry" />
        </mxCell>
        <mxCell id="5Dlf4MTRBafzbC5_fvvY-52" value="" style="edgeStyle=orthogonalEdgeStyle;rounded=0;orthogonalLoop=1;jettySize=auto;html=1;" edge="1" parent="WIyWlLk6GJQsqaUBKTNV-1" source="5Dlf4MTRBafzbC5_fvvY-43" target="5Dlf4MTRBafzbC5_fvvY-45">
          <mxGeometry relative="1" as="geometry" />
        </mxCell>
        <mxCell id="5Dlf4MTRBafzbC5_fvvY-43" value="reads issue details" style="rounded=0;whiteSpace=wrap;html=1;" vertex="1" parent="WIyWlLk6GJQsqaUBKTNV-1">
          <mxGeometry x="610" y="1059" width="120" height="60" as="geometry" />
        </mxCell>
        <mxCell id="5Dlf4MTRBafzbC5_fvvY-62" value="" style="edgeStyle=orthogonalEdgeStyle;rounded=0;orthogonalLoop=1;jettySize=auto;html=1;" edge="1" parent="WIyWlLk6GJQsqaUBKTNV-1" source="5Dlf4MTRBafzbC5_fvvY-44" target="5Dlf4MTRBafzbC5_fvvY-46">
          <mxGeometry relative="1" as="geometry" />
        </mxCell>
        <mxCell id="5Dlf4MTRBafzbC5_fvvY-44" value="gives time estimations to buyer" style="rounded=0;whiteSpace=wrap;html=1;" vertex="1" parent="WIyWlLk6GJQsqaUBKTNV-1">
          <mxGeometry x="224" y="1219" width="120" height="60" as="geometry" />
        </mxCell>
        <mxCell id="5Dlf4MTRBafzbC5_fvvY-53" value="yes" style="edgeStyle=orthogonalEdgeStyle;rounded=0;orthogonalLoop=1;jettySize=auto;html=1;" edge="1" parent="WIyWlLk6GJQsqaUBKTNV-1" source="5Dlf4MTRBafzbC5_fvvY-45" target="5Dlf4MTRBafzbC5_fvvY-48">
          <mxGeometry relative="1" as="geometry" />
        </mxCell>
        <mxCell id="5Dlf4MTRBafzbC5_fvvY-55" value="No" style="edgeStyle=orthogonalEdgeStyle;rounded=0;orthogonalLoop=1;jettySize=auto;html=1;" edge="1" parent="WIyWlLk6GJQsqaUBKTNV-1" source="5Dlf4MTRBafzbC5_fvvY-45" target="5Dlf4MTRBafzbC5_fvvY-54">
          <mxGeometry relative="1" as="geometry" />
        </mxCell>
        <mxCell id="5Dlf4MTRBafzbC5_fvvY-45" value="understands the issue" style="rhombus;whiteSpace=wrap;html=1;" vertex="1" parent="WIyWlLk6GJQsqaUBKTNV-1">
          <mxGeometry x="620" y="1199" width="100" height="100" as="geometry" />
        </mxCell>
        <mxCell id="5Dlf4MTRBafzbC5_fvvY-66" value="" style="edgeStyle=orthogonalEdgeStyle;rounded=0;orthogonalLoop=1;jettySize=auto;html=1;" edge="1" parent="WIyWlLk6GJQsqaUBKTNV-1" source="5Dlf4MTRBafzbC5_fvvY-46" target="5Dlf4MTRBafzbC5_fvvY-65">
          <mxGeometry relative="1" as="geometry" />
        </mxCell>
        <mxCell id="5Dlf4MTRBafzbC5_fvvY-46" value="solves issue" style="rounded=0;whiteSpace=wrap;html=1;" vertex="1" parent="WIyWlLk6GJQsqaUBKTNV-1">
          <mxGeometry x="40" y="1219" width="120" height="60" as="geometry" />
        </mxCell>
        <mxCell id="5Dlf4MTRBafzbC5_fvvY-61" value="yes" style="edgeStyle=orthogonalEdgeStyle;rounded=0;orthogonalLoop=1;jettySize=auto;html=1;" edge="1" parent="WIyWlLk6GJQsqaUBKTNV-1" source="5Dlf4MTRBafzbC5_fvvY-48" target="5Dlf4MTRBafzbC5_fvvY-44">
          <mxGeometry relative="1" as="geometry" />
        </mxCell>
        <mxCell id="5Dlf4MTRBafzbC5_fvvY-64" value="" style="edgeStyle=orthogonalEdgeStyle;rounded=0;orthogonalLoop=1;jettySize=auto;html=1;" edge="1" parent="WIyWlLk6GJQsqaUBKTNV-1" source="5Dlf4MTRBafzbC5_fvvY-48" target="5Dlf4MTRBafzbC5_fvvY-63">
          <mxGeometry relative="1" as="geometry" />
        </mxCell>
        <mxCell id="5Dlf4MTRBafzbC5_fvvY-48" value="can support solve it ?" style="rhombus;whiteSpace=wrap;html=1;" vertex="1" parent="WIyWlLk6GJQsqaUBKTNV-1">
          <mxGeometry x="414" y="1199" width="100" height="100" as="geometry" />
        </mxCell>
        <mxCell id="5Dlf4MTRBafzbC5_fvvY-60" style="edgeStyle=orthogonalEdgeStyle;rounded=0;orthogonalLoop=1;jettySize=auto;html=1;entryX=1;entryY=0.5;entryDx=0;entryDy=0;" edge="1" parent="WIyWlLk6GJQsqaUBKTNV-1" source="5Dlf4MTRBafzbC5_fvvY-54" target="5Dlf4MTRBafzbC5_fvvY-43">
          <mxGeometry relative="1" as="geometry">
            <Array as="points">
              <mxPoint x="860" y="1089" />
            </Array>
          </mxGeometry>
        </mxCell>
        <mxCell id="5Dlf4MTRBafzbC5_fvvY-54" value="asks more info to buyer" style="whiteSpace=wrap;html=1;" vertex="1" parent="WIyWlLk6GJQsqaUBKTNV-1">
          <mxGeometry x="800" y="1219" width="120" height="60" as="geometry" />
        </mxCell>
        <mxCell id="5Dlf4MTRBafzbC5_fvvY-63" value="assigns to senior support" style="whiteSpace=wrap;html=1;" vertex="1" parent="WIyWlLk6GJQsqaUBKTNV-1">
          <mxGeometry x="404" y="1361" width="120" height="60" as="geometry" />
        </mxCell>
        <mxCell id="5Dlf4MTRBafzbC5_fvvY-65" value="gets money on support dashboard" style="rounded=0;whiteSpace=wrap;html=1;" vertex="1" parent="WIyWlLk6GJQsqaUBKTNV-1">
          <mxGeometry x="40" y="1359" width="120" height="60" as="geometry" />
        </mxCell>
        <mxCell id="5Dlf4MTRBafzbC5_fvvY-67" value="&lt;span style=&quot;font-size: 18px;&quot;&gt;&lt;b&gt;Support&lt;/b&gt;&lt;/span&gt;" style="text;html=1;align=center;verticalAlign=middle;resizable=0;points=[];autosize=1;strokeColor=none;fillColor=none;" vertex="1" parent="WIyWlLk6GJQsqaUBKTNV-1">
          <mxGeometry x="30" y="1019" width="90" height="40" as="geometry" />
        </mxCell>
      </root>
    </mxGraphModel>
  </diagram>
</mxfile>
